<svg xmlns="http://www.w3.org/2000/svg" xmlns:xlink="http://www.w3.org/1999/xlink" width="500" zoomAndPan="magnify" viewBox="0 0 375 374.999991" height="500" preserveAspectRatio="xMidYMid meet" version="1.0"><path fill="#bc1823" d="M 375 187.5 C 375 190.570312 374.925781 193.636719 374.773438 196.699219 C 374.625 199.765625 374.398438 202.824219 374.097656 205.878906 C 373.796875 208.933594 373.421875 211.976562 372.96875 215.011719 C 372.519531 218.046875 371.996094 221.070312 371.398438 224.078125 C 370.796875 227.089844 370.125 230.082031 369.378906 233.058594 C 368.636719 236.035156 367.816406 238.992188 366.925781 241.929688 C 366.035156 244.863281 365.074219 247.777344 364.039062 250.667969 C 363.003906 253.554688 361.902344 256.417969 360.726562 259.253906 C 359.554688 262.089844 358.308594 264.890625 356.996094 267.667969 C 355.6875 270.441406 354.308594 273.179688 352.859375 275.886719 C 351.414062 278.59375 349.902344 281.261719 348.324219 283.894531 C 346.746094 286.527344 345.105469 289.117188 343.402344 291.667969 C 341.695312 294.222656 339.929688 296.730469 338.101562 299.195312 C 336.273438 301.660156 334.386719 304.078125 332.4375 306.449219 C 330.492188 308.820312 328.488281 311.144531 326.429688 313.417969 C 324.367188 315.691406 322.253906 317.914062 320.082031 320.082031 C 317.914062 322.253906 315.691406 324.367188 313.417969 326.429688 C 311.144531 328.488281 308.820312 330.492188 306.449219 332.4375 C 304.078125 334.386719 301.660156 336.273438 299.195312 338.101562 C 296.730469 339.929688 294.222656 341.695312 291.667969 343.402344 C 289.117188 345.105469 286.527344 346.746094 283.894531 348.324219 C 281.261719 349.902344 278.59375 351.414062 275.886719 352.859375 C 273.179688 354.308594 270.441406 355.6875 267.667969 356.996094 C 264.890625 358.308594 262.089844 359.554688 259.253906 360.726562 C 256.417969 361.902344 253.554688 363.003906 250.667969 364.039062 C 247.777344 365.074219 244.863281 366.035156 241.929688 366.925781 C 238.992188 367.816406 236.035156 368.636719 233.058594 369.378906 C 230.082031 370.125 227.089844 370.796875 224.078125 371.398438 C 221.070312 371.996094 218.046875 372.519531 215.011719 372.96875 C 211.976562 373.421875 208.933594 373.796875 205.878906 374.097656 C 202.824219 374.398438 199.765625 374.625 196.699219 374.773438 C 193.636719 374.925781 190.570312 375 187.5 375 C 184.429688 375 181.363281 374.925781 178.300781 374.773438 C 175.234375 374.625 172.175781 374.398438 169.121094 374.097656 C 166.066406 373.796875 163.023438 373.421875 159.988281 372.96875 C 156.953125 372.519531 153.929688 371.996094 150.921875 371.398438 C 147.910156 370.796875 144.917969 370.125 141.941406 369.378906 C 138.964844 368.636719 136.007812 367.816406 133.070312 366.925781 C 130.136719 366.035156 127.222656 365.074219 124.332031 364.039062 C 121.445312 363.003906 118.582031 361.902344 115.746094 360.726562 C 112.910156 359.554688 110.105469 358.308594 107.332031 356.996094 C 104.558594 355.6875 101.820312 354.308594 99.113281 352.859375 C 96.40625 351.414062 93.738281 349.902344 91.105469 348.324219 C 88.472656 346.746094 85.882812 345.105469 83.332031 343.402344 C 80.777344 341.695312 78.269531 339.929688 75.804688 338.101562 C 73.339844 336.273438 70.921875 334.386719 68.550781 332.4375 C 66.179688 330.492188 63.855469 328.488281 61.582031 326.429688 C 59.308594 324.367188 57.085938 322.253906 54.917969 320.082031 C 52.746094 317.914062 50.632812 315.691406 48.570312 313.417969 C 46.511719 311.144531 44.507812 308.820312 42.558594 306.449219 C 40.613281 304.078125 38.726562 301.660156 36.898438 299.195312 C 35.070312 296.730469 33.304688 294.222656 31.597656 291.667969 C 29.894531 289.117188 28.253906 286.527344 26.675781 283.894531 C 25.097656 281.261719 23.585938 278.59375 22.140625 275.886719 C 20.691406 273.179688 19.3125 270.441406 18.003906 267.667969 C 16.691406 264.890625 15.445312 262.089844 14.273438 259.253906 C 13.097656 256.417969 11.996094 253.554688 10.960938 250.667969 C 9.925781 247.777344 8.964844 244.863281 8.074219 241.929688 C 7.183594 238.992188 6.363281 236.035156 5.621094 233.058594 C 4.875 230.082031 4.203125 227.089844 3.601562 224.078125 C 3.003906 221.070312 2.480469 218.046875 2.03125 215.011719 C 1.578125 211.976562 1.203125 208.933594 0.902344 205.878906 C 0.601562 202.824219 0.375 199.765625 0.226562 196.699219 C 0.0742188 193.636719 0 190.570312 0 187.5 C 0 184.429688 0.0742188 181.363281 0.226562 178.300781 C 0.375 175.234375 0.601562 172.175781 0.902344 169.121094 C 1.203125 166.066406 1.578125 163.023438 2.03125 159.988281 C 2.480469 156.953125 3.003906 153.929688 3.601562 150.921875 C 4.203125 147.910156 4.875 144.917969 5.621094 141.941406 C 6.363281 138.964844 7.183594 136.007812 8.074219 133.070312 C 8.964844 130.136719 9.925781 127.222656 10.960938 124.332031 C 11.996094 121.445312 13.097656 118.582031 14.273438 115.746094 C 15.445312 112.910156 16.691406 110.105469 18.003906 107.332031 C 19.3125 104.558594 20.691406 101.820312 22.140625 99.113281 C 23.585938 96.40625 25.097656 93.738281 26.675781 91.105469 C 28.253906 88.472656 29.894531 85.882812 31.597656 83.332031 C 33.304688 80.777344 35.070312 78.269531 36.898438 75.804688 C 38.726562 73.339844 40.613281 70.921875 42.558594 68.550781 C 44.507812 66.179688 46.511719 63.855469 48.570312 61.582031 C 50.632812 59.308594 52.746094 57.085938 54.917969 54.917969 C 57.085938 52.746094 59.308594 50.632812 61.582031 48.570312 C 63.855469 46.511719 66.179688 44.507812 68.550781 42.558594 C 70.921875 40.613281 73.339844 38.726562 75.804688 36.898438 C 78.269531 35.070312 80.777344 33.304688 83.332031 31.597656 C 85.882812 29.894531 88.472656 28.253906 91.105469 26.675781 C 93.738281 25.097656 96.40625 23.585938 99.113281 22.140625 C 101.820312 20.691406 104.558594 19.3125 107.332031 18.003906 C 110.105469 16.691406 112.910156 15.445312 115.746094 14.273438 C 118.582031 13.097656 121.445312 11.996094 124.332031 10.960938 C 127.222656 9.925781 130.136719 8.964844 133.070312 8.074219 C 136.007812 7.183594 138.964844 6.363281 141.941406 5.617188 C 144.917969 4.875 147.910156 4.203125 150.921875 3.601562 C 153.929688 3.003906 156.953125 2.480469 159.988281 2.03125 C 163.023438 1.578125 166.066406 1.203125 169.121094 0.902344 C 172.175781 0.601562 175.234375 0.375 178.300781 0.226562 C 181.363281 0.0742188 184.429688 0 187.5 0 C 190.570312 0 193.636719 0.0742188 196.699219 0.226562 C 199.765625 0.375 202.824219 0.601562 205.878906 0.902344 C 208.933594 1.203125 211.976562 1.578125 215.011719 2.03125 C 218.046875 2.480469 221.070312 3.003906 224.078125 3.601562 C 227.089844 4.203125 230.082031 4.875 233.058594 5.617188 C 236.035156 6.363281 238.992188 7.183594 241.929688 8.074219 C 244.863281 8.964844 247.777344 9.925781 250.667969 10.960938 C 253.554688 11.996094 256.417969 13.097656 259.253906 14.273438 C 262.089844 15.445312 264.890625 16.691406 267.667969 18.003906 C 270.441406 19.3125 273.179688 20.691406 275.886719 22.140625 C 278.59375 23.585938 281.261719 25.097656 283.894531 26.675781 C 286.527344 28.253906 289.117188 29.894531 291.667969 31.597656 C 294.222656 33.304688 296.730469 35.070312 299.195312 36.898438 C 301.660156 38.726562 304.078125 40.613281 306.449219 42.558594 C 308.820312 44.507812 311.144531 46.511719 313.417969 48.570312 C 315.691406 50.632812 317.914062 52.746094 320.082031 54.917969 C 322.253906 57.085938 324.367188 59.308594 326.429688 61.582031 C 328.488281 63.855469 330.492188 66.179688 332.4375 68.550781 C 334.386719 70.921875 336.273438 73.339844 338.101562 75.804688 C 339.929688 78.269531 341.695312 80.777344 343.402344 83.332031 C 345.105469 85.882812 346.746094 88.472656 348.324219 91.105469 C 349.902344 93.738281 351.414062 96.40625 352.859375 99.113281 C 354.308594 101.820312 355.6875 104.558594 356.996094 107.332031 C 358.308594 110.105469 359.554688 112.910156 360.726562 115.746094 C 361.902344 118.582031 363.003906 121.445312 364.039062 124.332031 C 365.074219 127.222656 366.035156 130.136719 366.925781 133.070312 C 367.816406 136.007812 368.636719 138.964844 369.378906 141.941406 C 370.125 144.917969 370.796875 147.910156 371.398438 150.921875 C 371.996094 153.929688 372.519531 156.953125 372.96875 159.988281 C 373.421875 163.023438 373.796875 166.066406 374.097656 169.121094 C 374.398438 172.175781 374.625 175.234375 374.773438 178.300781 C 374.925781 181.363281 375 184.429688 375 187.5 Z M 375 187.5 " fill-opacity="1" fill-rule="nonzero"/><path fill="#ffffff" d="M 187.5 357.117188 C 93.890625 357.117188 17.882812 281.109375 17.882812 187.5 C 17.882812 93.890625 93.890625 17.882812 187.5 17.882812 C 281.109375 17.882812 357.117188 93.890625 357.117188 187.5 C 357.117188 281.109375 281.109375 357.117188 187.5 357.117188 Z M 187.5 22.074219 C 96.125 22.074219 22.074219 96.125 22.074219 187.5 C 22.074219 278.875 96.40625 352.925781 187.5 352.925781 C 278.875 352.925781 352.925781 278.59375 352.925781 187.5 C 352.925781 96.125 278.875 22.074219 187.5 22.074219 Z M 187.5 22.074219 " fill-opacity="1" fill-rule="nonzero"/><path fill="#ffffff" d="M 187.46875 131.621094 L 236.207031 148.554688 L 236.207031 166.050781 C 236.207031 204.050781 216.941406 226.527344 187.46875 242.46875 C 157.996094 226.523438 138.746094 204.050781 138.746094 166.050781 L 138.746094 148.554688 Z M 186.625 126.449219 L 135.3125 144.273438 C 134.273438 144.632812 133.582031 145.613281 133.582031 146.71875 L 133.582031 166.046875 C 133.582031 206.40625 155.035156 231.296875 186.257812 247.8125 C 187.011719 248.210938 187.921875 248.210938 188.675781 247.8125 C 219.894531 231.296875 241.351562 206.40625 241.351562 166.046875 L 241.351562 146.71875 C 241.351562 145.609375 240.652344 144.628906 239.617188 144.273438 L 188.316406 126.449219 C 187.707031 126.234375 187.109375 126.28125 186.625 126.449219 Z M 186.625 126.449219 " fill-opacity="1" fill-rule="nonzero"/><path fill="#ffffff" d="M 210.0625 166.363281 L 215.726562 171.925781 C 216.222656 172.40625 216.222656 173.058594 215.726562 173.542969 C 214.203125 175.050781 197.738281 191.820312 188.703125 200.851562 C 186.339844 203.195312 183.949219 205.527344 181.5625 207.886719 C 181.0625 208.371094 180.335938 208.382812 179.851562 207.898438 L 159.234375 187.332031 C 158.75 186.847656 158.765625 186.136719 159.25 185.640625 C 161.183594 183.691406 163.757812 181.058594 164.996094 179.8125 C 165.492188 179.3125 166.148438 179.3125 166.660156 179.8125 L 178.910156 192.066406 C 179.917969 193.074219 181.5625 193.074219 182.570312 192.066406 L 207.914062 166.777344 C 208.640625 166.046875 209.566406 165.867188 210.0625 166.363281 Z M 208.726562 161.074219 C 207.078125 161.246094 205.507812 161.902344 204.269531 163.140625 L 180.75 186.578125 L 170.304688 176.175781 C 167.859375 173.730469 163.804688 173.730469 161.359375 176.1875 C 160.105469 177.453125 157.5 180.066406 155.578125 182.015625 C 153.144531 184.476562 153.117188 188.511719 155.578125 190.96875 L 176.210938 211.554688 C 178.691406 214.011719 182.726562 214.011719 185.191406 211.566406 C 187.566406 209.226562 189.972656 206.875 192.351562 204.488281 C 201.429688 195.433594 218.359375 178.1875 219.355469 177.210938 C 221.828125 174.78125 221.804688 170.683594 219.34375 168.257812 L 213.695312 162.695312 C 212.269531 161.304688 210.375 160.921875 208.726562 161.074219 Z M 208.726562 161.074219 " fill-opacity="1" fill-rule="evenodd"/><path fill="#ffffff" d="M 158.378906 266.851562 C 155.363281 271.699219 151.226562 274.878906 146.300781 275.449219 C 141.53125 276.003906 136 273.800781 130.421875 269.449219 C 135.472656 267.105469 140.113281 264.644531 145.207031 264.082031 C 150.289062 263.496094 153.898438 264.535156 158.378906 266.851562 Z M 115.824219 242.328125 C 121.085938 242.859375 124.929688 245.273438 129.324219 250.335938 C 124.730469 253.71875 119.703125 255.15625 114.925781 253.859375 C 110.285156 252.609375 105.960938 248.515625 102.402344 242.40625 C 106.574219 242.171875 110.554688 241.789062 115.824219 242.328125 Z M 86.691406 206.25 C 91.929688 208.140625 96.964844 209.679688 100.210938 211.753906 C 103.710938 214 106.296875 217.722656 108.351562 224.101562 C 102.800781 225.414062 97.609375 224.757812 93.71875 221.699219 C 89.953125 218.730469 87.574219 213.273438 86.691406 206.25 Z M 85.113281 167.015625 C 89.285156 170.714844 93.382812 173.996094 95.617188 177.136719 C 98.035156 180.503906 99.058594 184.925781 98.589844 191.625 C 92.945312 190.769531 88.375 188.253906 85.898438 183.960938 C 83.507812 179.796875 83.320312 173.855469 85.113281 167.015625 Z M 99.640625 129.433594 C 101.820312 134.554688 104.125 139.273438 104.808594 143.066406 C 105.546875 147.144531 104.578125 151.582031 101.292969 157.425781 C 96.558594 154.253906 93.496094 150.015625 93.097656 145.085938 C 92.710938 140.308594 95.085938 134.851562 99.640625 129.433594 Z M 124.457031 100.921875 C 125.15625 106.4375 125.667969 111.597656 125.296875 115.449219 C 124.902344 119.570312 123.195312 123.578125 118.441406 128.3125 C 114.742188 123.976562 112.949219 119.074219 113.898438 114.207031 C 114.824219 109.503906 118.59375 104.902344 124.457031 100.921875 Z M 125.140625 94.351562 C 116.0625 99.242188 110.597656 105.992188 109.179688 113.285156 C 107.878906 119.839844 109.933594 126.5625 114.753906 131.992188 C 112.734375 134.851562 110.898438 137.792969 109.246094 140.835938 C 107.992188 135.476562 105.390625 130.425781 102.699219 123.847656 C 102.003906 122.15625 99.828125 121.703125 98.515625 122.925781 C 90.988281 129.972656 87.6875 138.0625 88.285156 145.46875 C 88.882812 152.859375 93.492188 159.359375 100.835938 163.210938 C 100.042969 166.691406 99.46875 170.203125 99.097656 173.757812 C 95.644531 169.179688 90.949219 165.683594 85.496094 160.667969 C 84.074219 159.34375 81.964844 159.984375 81.328125 161.605469 C 77.570312 171.210938 77.996094 179.929688 81.710938 186.363281 C 85.285156 192.566406 91.882812 196.386719 99.78125 196.96875 C 100.355469 200.441406 101.136719 203.878906 102.132812 207.304688 C 97.222656 204.363281 91.628906 202.742188 84.703125 200.226562 C 82.539062 199.429688 81.128906 200.839844 81.171875 202.644531 C 81.402344 212.9375 84.886719 220.882812 90.734375 225.484375 C 96.371094 229.9375 103.9375 231.03125 111.507812 228.617188 C 113.371094 231.671875 115.40625 234.597656 117.625 237.402344 C 111.761719 236.445312 105.832031 237.558594 98.191406 237.640625 C 96.183594 237.65625 95.171875 239.660156 95.882812 241.25 C 100.109375 250.648438 106.480469 256.558594 113.65625 258.511719 C 120.570312 260.386719 127.941406 258.453125 133.929688 253.292969 C 136.78125 255.410156 139.738281 257.359375 142.808594 259.132812 C 136.972656 260.414062 131.8125 263.554688 124.738281 266.582031 C 122.917969 267.363281 122.605469 269.441406 123.941406 270.792969 C 131.199219 278.109375 139.46875 281.097656 146.851562 280.242188 C 153.980469 279.421875 160.128906 274.886719 163.785156 267.832031 C 166.347656 268.53125 168.921875 269.140625 171.566406 269.605469 C 175.03125 270.308594 175.9375 265.042969 172.453125 264.535156 C 144.035156 259.535156 120.246094 240.171875 109.617188 213.375 C 99.113281 186.949219 102.925781 156.328125 119.585938 134.082031 C 123.8125 128.429688 129.636719 124.433594 130.515625 115.902344 C 131.140625 109.941406 129.675781 104.0625 128.910156 96.386719 C 128.710938 94.410156 126.660156 93.53125 125.140625 94.351562 Z M 125.140625 94.351562 " fill-opacity="1" fill-rule="nonzero"/><path fill="#ffffff" d="M 216.566406 266.851562 C 219.582031 271.699219 223.710938 274.878906 228.632812 275.449219 C 233.414062 276.003906 238.933594 273.800781 244.511719 269.449219 C 239.460938 267.105469 234.824219 264.644531 229.742188 264.082031 C 224.664062 263.496094 221.035156 264.535156 216.566406 266.851562 Z M 259.128906 242.328125 C 253.84375 242.859375 250.003906 245.273438 245.609375 250.335938 C 250.203125 253.71875 255.242188 255.15625 260.023438 253.859375 C 264.648438 252.609375 268.976562 248.515625 272.546875 242.40625 C 268.375 242.171875 264.390625 241.789062 259.128906 242.328125 Z M 288.238281 206.25 C 283 208.140625 277.976562 209.679688 274.71875 211.753906 C 271.21875 214 268.644531 217.722656 266.578125 224.101562 C 272.144531 225.414062 277.328125 224.757812 281.222656 221.699219 C 284.980469 218.730469 287.371094 213.273438 288.238281 206.25 Z M 289.816406 167.015625 C 285.664062 170.714844 281.566406 173.996094 279.320312 177.136719 C 276.898438 180.503906 275.890625 184.925781 276.359375 191.625 C 281.996094 190.769531 286.574219 188.253906 289.039062 183.960938 C 291.441406 179.796875 291.617188 173.855469 289.816406 167.015625 Z M 275.304688 129.433594 C 273.128906 134.554688 270.824219 139.273438 270.125 143.066406 C 269.382812 147.144531 270.355469 151.582031 273.636719 157.425781 C 278.375 154.253906 281.4375 150.015625 281.847656 145.085938 C 282.234375 140.308594 279.84375 134.851562 275.304688 129.433594 Z M 250.488281 100.921875 C 249.789062 106.4375 249.277344 111.597656 249.648438 115.449219 C 250.035156 119.570312 251.742188 123.578125 256.492188 128.3125 C 260.195312 123.976562 261.984375 119.074219 261.03125 114.207031 C 260.109375 109.503906 256.339844 104.902344 250.488281 100.921875 Z M 249.804688 94.351562 C 258.867188 99.242188 264.332031 105.992188 265.773438 113.285156 C 267.050781 119.839844 265.003906 126.5625 260.195312 131.992188 C 262.214844 134.851562 264.050781 137.792969 265.683594 140.835938 C 266.9375 135.476562 269.542969 130.425781 272.246094 123.847656 C 272.929688 122.15625 275.121094 121.703125 276.433594 122.925781 C 283.945312 129.972656 287.261719 138.0625 286.644531 145.46875 C 286.050781 152.859375 281.457031 159.359375 274.109375 163.210938 C 274.894531 166.691406 275.476562 170.203125 275.847656 173.757812 C 279.308594 169.179688 283.988281 165.683594 289.4375 160.667969 C 290.871094 159.34375 292.984375 159.984375 293.621094 161.605469 C 297.367188 171.210938 296.941406 179.929688 293.222656 186.363281 C 289.652344 192.566406 283.0625 196.386719 275.167969 196.96875 C 274.601562 200.441406 273.816406 203.878906 272.820312 207.304688 C 277.714844 204.363281 283.324219 202.742188 290.253906 200.226562 C 292.414062 199.429688 293.824219 200.839844 293.777344 202.644531 C 293.539062 212.9375 290.050781 220.882812 284.21875 225.484375 C 278.582031 229.9375 271.011719 231.03125 263.441406 228.617188 C 261.574219 231.671875 259.53125 234.597656 257.324219 237.402344 C 263.183594 236.445312 269.105469 237.558594 276.757812 237.640625 C 278.765625 237.65625 279.777344 239.660156 279.046875 241.25 C 274.824219 250.648438 268.464844 256.558594 261.277344 258.511719 C 254.378906 260.386719 247.003906 258.453125 241 253.292969 C 238.171875 255.410156 235.207031 257.359375 232.121094 259.132812 C 237.96875 260.414062 243.117188 263.554688 250.207031 266.582031 C 252.027344 267.363281 252.324219 269.441406 250.988281 270.792969 C 243.746094 278.109375 235.476562 281.097656 228.082031 280.242188 C 220.953125 279.421875 214.804688 274.886719 211.164062 267.832031 C 208.601562 268.53125 206.015625 269.140625 203.378906 269.605469 C 199.921875 270.308594 198.996094 265.042969 202.496094 264.535156 C 230.914062 259.535156 254.691406 240.171875 265.335938 213.375 C 275.824219 186.949219 272.023438 156.328125 255.359375 134.082031 C 251.132812 128.429688 245.300781 124.433594 244.417969 115.902344 C 243.808594 109.941406 245.257812 104.0625 246.039062 96.386719 C 246.222656 94.410156 248.269531 93.53125 249.804688 94.351562 Z M 249.804688 94.351562 " fill-opacity="1" fill-rule="nonzero"/></svg>