<svg xmlns="http://www.w3.org/2000/svg" xmlns:xlink="http://www.w3.org/1999/xlink" width="500" zoomAndPan="magnify" viewBox="0 0 375 374.999991" height="500" preserveAspectRatio="xMidYMid meet" version="1.0"><defs><clipPath id="id1"><path d="M 132 92.964844 L 190 92.964844 L 190 175 L 132 175 Z M 132 92.964844 " clip-rule="nonzero"/></clipPath><clipPath id="id2"><path d="M 95.328125 145 L 159 145 L 159 216 L 95.328125 216 Z M 95.328125 145 " clip-rule="nonzero"/></clipPath><clipPath id="id3"><path d="M 174 207 L 241 207 L 241 281.964844 L 174 281.964844 Z M 174 207 " clip-rule="nonzero"/></clipPath><clipPath id="id4"><path d="M 218.746094 152.773438 L 279.816406 152.773438 L 279.816406 239 L 218.746094 239 Z M 218.746094 152.773438 " clip-rule="nonzero"/></clipPath></defs><path fill="#bc1823" d="M 375 187.5 C 375 190.570312 374.925781 193.636719 374.773438 196.699219 C 374.625 199.765625 374.398438 202.824219 374.097656 205.878906 C 373.796875 208.933594 373.421875 211.976562 372.96875 215.011719 C 372.519531 218.046875 371.996094 221.070312 371.398438 224.078125 C 370.796875 227.089844 370.125 230.082031 369.378906 233.058594 C 368.636719 236.035156 367.816406 238.992188 366.925781 241.929688 C 366.035156 244.863281 365.074219 247.777344 364.039062 250.667969 C 363.003906 253.554688 361.902344 256.417969 360.726562 259.253906 C 359.554688 262.089844 358.308594 264.890625 356.996094 267.667969 C 355.6875 270.441406 354.308594 273.179688 352.859375 275.886719 C 351.414062 278.59375 349.902344 281.261719 348.324219 283.894531 C 346.746094 286.527344 345.105469 289.117188 343.402344 291.667969 C 341.695312 294.222656 339.929688 296.730469 338.101562 299.195312 C 336.273438 301.660156 334.386719 304.078125 332.4375 306.449219 C 330.492188 308.820312 328.488281 311.144531 326.429688 313.417969 C 324.367188 315.691406 322.253906 317.914062 320.082031 320.082031 C 317.914062 322.253906 315.691406 324.367188 313.417969 326.429688 C 311.144531 328.488281 308.820312 330.492188 306.449219 332.4375 C 304.078125 334.386719 301.660156 336.273438 299.195312 338.101562 C 296.730469 339.929688 294.222656 341.695312 291.667969 343.402344 C 289.117188 345.105469 286.527344 346.746094 283.894531 348.324219 C 281.261719 349.902344 278.59375 351.414062 275.886719 352.859375 C 273.179688 354.308594 270.441406 355.6875 267.667969 356.996094 C 264.890625 358.308594 262.089844 359.554688 259.253906 360.726562 C 256.417969 361.902344 253.554688 363.003906 250.667969 364.039062 C 247.777344 365.074219 244.863281 366.035156 241.929688 366.925781 C 238.992188 367.816406 236.035156 368.636719 233.058594 369.378906 C 230.082031 370.125 227.089844 370.796875 224.078125 371.398438 C 221.070312 371.996094 218.046875 372.519531 215.011719 372.96875 C 211.976562 373.421875 208.933594 373.796875 205.878906 374.097656 C 202.824219 374.398438 199.765625 374.625 196.699219 374.773438 C 193.636719 374.925781 190.570312 375 187.5 375 C 184.429688 375 181.363281 374.925781 178.300781 374.773438 C 175.234375 374.625 172.175781 374.398438 169.121094 374.097656 C 166.066406 373.796875 163.023438 373.421875 159.988281 372.96875 C 156.953125 372.519531 153.929688 371.996094 150.921875 371.398438 C 147.910156 370.796875 144.917969 370.125 141.941406 369.378906 C 138.964844 368.636719 136.007812 367.816406 133.070312 366.925781 C 130.136719 366.035156 127.222656 365.074219 124.332031 364.039062 C 121.445312 363.003906 118.582031 361.902344 115.746094 360.726562 C 112.910156 359.554688 110.105469 358.308594 107.332031 356.996094 C 104.558594 355.6875 101.820312 354.308594 99.113281 352.859375 C 96.40625 351.414062 93.738281 349.902344 91.105469 348.324219 C 88.472656 346.746094 85.882812 345.105469 83.332031 343.402344 C 80.777344 341.695312 78.269531 339.929688 75.804688 338.101562 C 73.339844 336.273438 70.921875 334.386719 68.550781 332.4375 C 66.179688 330.492188 63.855469 328.488281 61.582031 326.429688 C 59.308594 324.367188 57.085938 322.253906 54.917969 320.082031 C 52.746094 317.914062 50.632812 315.691406 48.570312 313.417969 C 46.511719 311.144531 44.507812 308.820312 42.558594 306.449219 C 40.613281 304.078125 38.726562 301.660156 36.898438 299.195312 C 35.070312 296.730469 33.304688 294.222656 31.597656 291.667969 C 29.894531 289.117188 28.253906 286.527344 26.675781 283.894531 C 25.097656 281.261719 23.585938 278.59375 22.140625 275.886719 C 20.691406 273.179688 19.3125 270.441406 18.003906 267.667969 C 16.691406 264.890625 15.445312 262.089844 14.273438 259.253906 C 13.097656 256.417969 11.996094 253.554688 10.960938 250.667969 C 9.925781 247.777344 8.964844 244.863281 8.074219 241.929688 C 7.183594 238.992188 6.363281 236.035156 5.621094 233.058594 C 4.875 230.082031 4.203125 227.089844 3.601562 224.078125 C 3.003906 221.070312 2.480469 218.046875 2.03125 215.011719 C 1.578125 211.976562 1.203125 208.933594 0.902344 205.878906 C 0.601562 202.824219 0.375 199.765625 0.226562 196.699219 C 0.0742188 193.636719 0 190.570312 0 187.5 C 0 184.429688 0.0742188 181.363281 0.226562 178.300781 C 0.375 175.234375 0.601562 172.175781 0.902344 169.121094 C 1.203125 166.066406 1.578125 163.023438 2.03125 159.988281 C 2.480469 156.953125 3.003906 153.929688 3.601562 150.921875 C 4.203125 147.910156 4.875 144.917969 5.621094 141.941406 C 6.363281 138.964844 7.183594 136.007812 8.074219 133.070312 C 8.964844 130.136719 9.925781 127.222656 10.960938 124.332031 C 11.996094 121.445312 13.097656 118.582031 14.273438 115.746094 C 15.445312 112.910156 16.691406 110.105469 18.003906 107.332031 C 19.3125 104.558594 20.691406 101.820312 22.140625 99.113281 C 23.585938 96.40625 25.097656 93.738281 26.675781 91.105469 C 28.253906 88.472656 29.894531 85.882812 31.597656 83.332031 C 33.304688 80.777344 35.070312 78.269531 36.898438 75.804688 C 38.726562 73.339844 40.613281 70.921875 42.558594 68.550781 C 44.507812 66.179688 46.511719 63.855469 48.570312 61.582031 C 50.632812 59.308594 52.746094 57.085938 54.917969 54.917969 C 57.085938 52.746094 59.308594 50.632812 61.582031 48.570312 C 63.855469 46.511719 66.179688 44.507812 68.550781 42.558594 C 70.921875 40.613281 73.339844 38.726562 75.804688 36.898438 C 78.269531 35.070312 80.777344 33.304688 83.332031 31.597656 C 85.882812 29.894531 88.472656 28.253906 91.105469 26.675781 C 93.738281 25.097656 96.40625 23.585938 99.113281 22.140625 C 101.820312 20.691406 104.558594 19.3125 107.332031 18.003906 C 110.105469 16.691406 112.910156 15.445312 115.746094 14.273438 C 118.582031 13.097656 121.445312 11.996094 124.332031 10.960938 C 127.222656 9.925781 130.136719 8.964844 133.070312 8.074219 C 136.007812 7.183594 138.964844 6.363281 141.941406 5.617188 C 144.917969 4.875 147.910156 4.203125 150.921875 3.601562 C 153.929688 3.003906 156.953125 2.480469 159.988281 2.03125 C 163.023438 1.578125 166.066406 1.203125 169.121094 0.902344 C 172.175781 0.601562 175.234375 0.375 178.300781 0.226562 C 181.363281 0.0742188 184.429688 0 187.5 0 C 190.570312 0 193.636719 0.0742188 196.699219 0.226562 C 199.765625 0.375 202.824219 0.601562 205.878906 0.902344 C 208.933594 1.203125 211.976562 1.578125 215.011719 2.03125 C 218.046875 2.480469 221.070312 3.003906 224.078125 3.601562 C 227.089844 4.203125 230.082031 4.875 233.058594 5.617188 C 236.035156 6.363281 238.992188 7.183594 241.929688 8.074219 C 244.863281 8.964844 247.777344 9.925781 250.667969 10.960938 C 253.554688 11.996094 256.417969 13.097656 259.253906 14.273438 C 262.089844 15.445312 264.890625 16.691406 267.667969 18.003906 C 270.441406 19.3125 273.179688 20.691406 275.886719 22.140625 C 278.59375 23.585938 281.261719 25.097656 283.894531 26.675781 C 286.527344 28.253906 289.117188 29.894531 291.667969 31.597656 C 294.222656 33.304688 296.730469 35.070312 299.195312 36.898438 C 301.660156 38.726562 304.078125 40.613281 306.449219 42.558594 C 308.820312 44.507812 311.144531 46.511719 313.417969 48.570312 C 315.691406 50.632812 317.914062 52.746094 320.082031 54.917969 C 322.253906 57.085938 324.367188 59.308594 326.429688 61.582031 C 328.488281 63.855469 330.492188 66.179688 332.4375 68.550781 C 334.386719 70.921875 336.273438 73.339844 338.101562 75.804688 C 339.929688 78.269531 341.695312 80.777344 343.402344 83.332031 C 345.105469 85.882812 346.746094 88.472656 348.324219 91.105469 C 349.902344 93.738281 351.414062 96.40625 352.859375 99.113281 C 354.308594 101.820312 355.6875 104.558594 356.996094 107.332031 C 358.308594 110.105469 359.554688 112.910156 360.726562 115.746094 C 361.902344 118.582031 363.003906 121.445312 364.039062 124.332031 C 365.074219 127.222656 366.035156 130.136719 366.925781 133.070312 C 367.816406 136.007812 368.636719 138.964844 369.378906 141.941406 C 370.125 144.917969 370.796875 147.910156 371.398438 150.921875 C 371.996094 153.929688 372.519531 156.953125 372.96875 159.988281 C 373.421875 163.023438 373.796875 166.066406 374.097656 169.121094 C 374.398438 172.175781 374.625 175.234375 374.773438 178.300781 C 374.925781 181.363281 375 184.429688 375 187.5 Z M 375 187.5 " fill-opacity="1" fill-rule="nonzero"/><path fill="#ffffff" d="M 187.5 357.117188 C 93.890625 357.117188 17.882812 281.109375 17.882812 187.5 C 17.882812 93.890625 93.890625 17.882812 187.5 17.882812 C 281.109375 17.882812 357.117188 93.890625 357.117188 187.5 C 357.117188 281.109375 281.109375 357.117188 187.5 357.117188 Z M 187.5 22.074219 C 96.125 22.074219 22.074219 96.125 22.074219 187.5 C 22.074219 278.875 96.40625 352.925781 187.5 352.925781 C 278.875 352.925781 352.925781 278.59375 352.925781 187.5 C 352.925781 96.125 278.875 22.074219 187.5 22.074219 Z M 187.5 22.074219 " fill-opacity="1" fill-rule="nonzero"/><path fill="#ffffff" d="M 217.179688 160.925781 C 212.902344 160.925781 211.148438 160.25 210.984375 160.117188 C 204.933594 155.941406 200.675781 151.566406 197.253906 148.050781 C 194.476562 145.195312 192.277344 142.941406 190.140625 141.832031 C 189.226562 141.355469 187.609375 141.113281 185.335938 141.113281 C 183.625 141.113281 181.550781 141.25 179.164062 141.515625 C 182.199219 133.847656 185.882812 124.609375 186.179688 123.914062 L 190.542969 114.09375 C 191.027344 114.117188 191.394531 114.121094 191.707031 114.121094 C 192.066406 114.128906 192.347656 114.132812 192.683594 114.164062 C 192.695312 114.164062 192.800781 114.167969 192.808594 114.167969 C 194.660156 114.167969 208.691406 111.382812 213.65625 110.03125 C 216.53125 109.253906 221.914062 108.445312 225.941406 108.445312 C 226.496094 108.445312 227.019531 108.457031 227.503906 108.496094 L 238.464844 109.675781 L 250.765625 111.039062 C 251.40625 111.101562 251.996094 111.285156 252.5 111.574219 C 253.035156 111.882812 253.464844 112.300781 253.742188 112.773438 C 254.003906 113.226562 254.113281 113.707031 254.070312 114.199219 C 254.035156 114.535156 253.941406 114.839844 253.769531 115.132812 C 253.234375 116.082031 251.996094 116.714844 250.679688 116.714844 C 250.542969 116.714844 250.402344 116.707031 250.265625 116.695312 L 250.105469 116.6875 L 243.464844 116.742188 C 243.421875 116.746094 243.382812 116.753906 243.335938 116.769531 C 243.285156 116.792969 242.089844 117.28125 242.117188 118.644531 C 242.140625 119.75 243.058594 120.261719 243.542969 120.375 L 254.015625 120.597656 C 254.722656 120.691406 256.6875 120.945312 257.523438 122.632812 C 258.058594 123.710938 258.023438 124.878906 257.429688 125.839844 C 256.671875 127.0625 255.097656 127.761719 253.113281 127.761719 C 252.878906 127.761719 252.628906 127.75 252.375 127.734375 L 243.085938 127.503906 C 242.300781 127.503906 241.417969 127.875 241.363281 128.921875 C 241.304688 130.066406 242.34375 130.546875 242.902344 130.636719 L 255.320312 131.242188 C 259.378906 131.832031 259.210938 135.53125 259.207031 135.566406 C 259.167969 135.96875 259.046875 136.347656 258.839844 136.710938 C 258.296875 137.667969 257.136719 138.371094 255.8125 138.53125 C 255.734375 138.507812 255.667969 138.496094 255.597656 138.488281 C 255.585938 138.484375 255.480469 138.480469 255.46875 138.480469 L 241.960938 138.238281 C 241.09375 138.238281 240.132812 138.667969 240.082031 139.867188 C 240.035156 140.972656 240.902344 141.351562 241.371094 141.394531 C 241.371094 141.394531 252.355469 141.777344 252.359375 141.777344 C 252.566406 141.792969 252.769531 141.804688 252.972656 141.804688 C 253.175781 141.804688 253.375 141.792969 253.566406 141.78125 C 254.03125 141.875 254.492188 142.035156 254.890625 142.257812 C 256.296875 143.078125 257.078125 144.554688 256.933594 146.121094 C 256.878906 146.691406 256.710938 147.226562 256.425781 147.710938 C 255.691406 148.988281 254.296875 149.78125 252.78125 149.78125 C 252.644531 149.78125 252.507812 149.773438 252.371094 149.761719 L 252.222656 149.753906 L 238.996094 149.820312 C 238.792969 149.808594 238.503906 149.800781 238.167969 149.800781 C 233.335938 149.800781 217.710938 150.96875 217.554688 150.984375 C 217.476562 150.988281 217.402344 151.019531 217.347656 151.074219 C 217.257812 151.144531 217.160156 151.210938 217.050781 151.285156 C 216.066406 151.960938 215.261719 152.867188 217.109375 155.769531 L 219.507812 160.863281 C 218.699219 160.902344 217.921875 160.925781 217.179688 160.925781 " fill-opacity="1" fill-rule="nonzero"/><g clip-path="url(#id1)"><path fill="#ffffff" d="M 149.027344 174.847656 C 144.128906 167.222656 138.84375 158.964844 138.4375 158.28125 C 138.425781 158.273438 133.496094 149.855469 132.269531 147.765625 C 133.375 144.0625 136.015625 132.78125 136.753906 128.289062 C 137.332031 124.738281 139.261719 118.4375 141.097656 115.0625 L 146.722656 105.59375 L 153.066406 94.980469 C 153.394531 94.417969 153.796875 93.96875 154.277344 93.625 C 154.777344 93.269531 155.335938 93.050781 155.882812 92.996094 C 155.972656 92.988281 156.058594 92.984375 156.148438 92.984375 C 156.566406 92.984375 156.960938 93.089844 157.316406 93.289062 C 157.609375 93.457031 157.847656 93.679688 158.046875 93.953125 C 158.632812 94.757812 158.871094 96.300781 158.011719 97.785156 L 157.9375 97.929688 L 155.242188 103.984375 C 155.21875 104.023438 155.207031 104.066406 155.207031 104.113281 C 155.203125 104.164062 155.152344 105.457031 156.40625 105.996094 C 156.640625 106.097656 156.878906 106.148438 157.117188 106.148438 C 158 106.148438 158.554688 105.449219 158.578125 105.417969 L 163.121094 95.996094 C 163.5 95.394531 164.554688 93.710938 166.4375 93.652344 L 166.5625 93.648438 C 167.769531 93.648438 168.835938 94.238281 169.410156 95.222656 C 170.207031 96.566406 170.039062 98.472656 168.941406 100.449219 L 164.878906 108.792969 C 164.625 109.296875 164.414062 110.402344 165.457031 110.945312 C 165.6875 111.066406 165.925781 111.128906 166.171875 111.128906 C 167.0625 111.128906 167.628906 110.296875 167.65625 110.261719 L 173.355469 99.226562 C 174.515625 97.445312 175.988281 97.0625 177.027344 97.0625 C 177.933594 97.0625 178.660156 97.34375 178.914062 97.492188 C 179.269531 97.691406 179.558594 97.957031 179.804688 98.296875 C 180.453125 99.191406 180.609375 100.535156 180.207031 101.808594 C 180.152344 101.867188 180.113281 101.921875 180.078125 101.980469 C 180.074219 101.988281 180.023438 102.085938 180.019531 102.09375 L 174.195312 114.265625 C 174.183594 114.28125 173.8125 114.988281 174.039062 115.699219 C 174.167969 116.109375 174.457031 116.429688 174.894531 116.652344 C 175.136719 116.777344 175.375 116.835938 175.609375 116.835938 C 176.398438 116.835938 176.804688 116.144531 176.824219 116.117188 C 176.824219 116.117188 181.722656 106.304688 181.726562 106.296875 C 181.917969 105.957031 182.082031 105.59375 182.234375 105.195312 C 182.515625 104.808594 182.847656 104.457031 183.21875 104.191406 C 183.9375 103.683594 184.773438 103.414062 185.632812 103.414062 C 186.320312 103.414062 186.992188 103.59375 187.585938 103.933594 C 188.085938 104.222656 188.5 104.601562 188.828125 105.058594 C 189.769531 106.371094 189.839844 108.152344 189.007812 109.59375 L 188.941406 109.726562 L 183.359375 122.285156 C 183.230469 122.507812 177.078125 138.042969 175.191406 142.796875 C 175.164062 142.871094 175.160156 142.953125 175.183594 143.03125 C 175.214844 143.140625 175.242188 143.261719 175.257812 143.386719 C 175.394531 144.15625 175.601562 145.308594 177.917969 145.308594 C 178.335938 145.308594 178.824219 145.273438 179.367188 145.195312 L 184.683594 144.917969 C 182.304688 151.011719 181.28125 151.492188 181.269531 151.496094 C 174.941406 155.269531 169.335938 157.25 164.828125 158.839844 C 161.191406 160.121094 158.320312 161.140625 156.429688 162.621094 C 154.964844 163.761719 152.476562 167.875 149.027344 174.847656 " fill-opacity="1" fill-rule="nonzero"/></g><g clip-path="url(#id2)"><path fill="#ffffff" d="M 125.699219 215.355469 C 122.773438 211.734375 116.171875 204.214844 113.25 201.292969 C 110.707031 198.753906 106.710938 193.503906 105.046875 190.050781 L 100.640625 179.953125 L 95.722656 168.609375 C 95.457031 168.027344 95.320312 167.417969 95.328125 166.839844 C 95.332031 166.222656 95.480469 165.648438 95.753906 165.167969 C 96.019531 164.714844 96.386719 164.382812 96.832031 164.175781 C 97.136719 164.042969 97.449219 163.976562 97.777344 163.976562 C 98.804688 163.976562 100.191406 164.683594 100.890625 166.242188 L 100.960938 166.382812 L 104.304688 172.113281 C 104.332031 172.148438 104.355469 172.183594 104.390625 172.210938 C 104.414062 172.230469 104.921875 172.628906 105.625 172.628906 C 105.972656 172.628906 106.308594 172.53125 106.621094 172.34375 C 107.578125 171.773438 107.5625 170.71875 107.425781 170.246094 L 102.425781 161.054688 C 102.160156 160.398438 101.402344 158.558594 102.457031 156.996094 C 103.097656 156.039062 104.089844 155.488281 105.175781 155.488281 C 106.855469 155.488281 108.402344 156.746094 109.441406 158.9375 L 113.847656 167.109375 C 113.863281 167.140625 114.355469 168.066406 115.261719 168.066406 C 115.484375 168.066406 115.710938 168.011719 115.933594 167.898438 C 116.960938 167.382812 116.859375 166.242188 116.664062 165.714844 L 111.027344 154.644531 C 109.535156 150.832031 112.832031 149.140625 112.867188 149.128906 C 113.234375 148.960938 113.625 148.878906 114.039062 148.878906 C 115.148438 148.878906 116.328125 149.535156 117.125 150.601562 C 117.140625 150.683594 117.167969 150.746094 117.195312 150.808594 C 117.199219 150.816406 117.246094 150.917969 117.253906 150.925781 L 123.738281 162.757812 C 123.753906 162.785156 124.253906 163.792969 125.273438 163.792969 C 125.542969 163.792969 125.816406 163.722656 126.085938 163.578125 C 127.070312 163.074219 126.96875 162.132812 126.773438 161.707031 C 126.773438 161.707031 121.667969 151.996094 121.664062 151.988281 C 121.496094 151.632812 121.296875 151.285156 121.0625 150.9375 C 120.917969 150.484375 120.824219 150.011719 120.824219 149.554688 C 120.835938 147.929688 121.734375 146.515625 123.171875 145.863281 C 123.6875 145.632812 124.226562 145.515625 124.78125 145.515625 C 126.421875 145.519531 127.910156 146.503906 128.597656 148.023438 L 128.660156 148.152344 L 135.609375 160.007812 C 135.710938 160.246094 144.742188 174.308594 147.503906 178.613281 C 147.53125 178.660156 147.566406 178.695312 147.609375 178.726562 L 147.734375 178.800781 C 148.058594 179.019531 148.503906 179.3125 149.0625 179.3125 C 150.03125 179.3125 150.929688 178.460938 151.894531 176.636719 L 154.601562 171.105469 C 157.683594 175.917969 158.167969 178.496094 158.121094 178.777344 C 157.492188 186.109375 155.824219 191.808594 154.488281 196.390625 C 153.398438 200.089844 152.546875 203.015625 152.640625 205.410156 C 152.707031 206.914062 153.980469 210.152344 156.433594 215.039062 C 148.207031 215.261719 138.578125 215.511719 137.738281 215.511719 C 137.738281 215.511719 127.171875 215.371094 125.699219 215.355469 " fill-opacity="1" fill-rule="nonzero"/></g><path fill="#ffffff" d="M 149.941406 260.132812 C 149.070312 260.132812 148.289062 260.101562 147.609375 260.039062 L 136.679688 258.59375 L 124.414062 256.9375 C 123.777344 256.863281 123.191406 256.660156 122.695312 256.359375 C 122.171875 256.039062 121.75 255.609375 121.480469 255.128906 C 121.234375 254.667969 121.136719 254.1875 121.1875 253.695312 C 121.230469 253.367188 121.335938 253.0625 121.511719 252.769531 C 122.058594 251.851562 123.246094 251.265625 124.539062 251.265625 C 124.707031 251.265625 124.878906 251.277344 125.058594 251.296875 L 125.210938 251.304688 L 131.855469 251.40625 C 131.898438 251.40625 131.9375 251.398438 131.980469 251.382812 C 132.03125 251.363281 133.246094 250.90625 133.246094 249.542969 C 133.25 248.429688 132.34375 247.902344 131.859375 247.773438 L 121.398438 247.304688 C 120.695312 247.191406 118.734375 246.886719 117.9375 245.179688 C 117.433594 244.105469 117.492188 242.949219 118.089844 242.011719 C 118.847656 240.816406 120.335938 240.15625 122.265625 240.15625 C 122.566406 240.15625 122.878906 240.175781 123.210938 240.207031 C 123.210938 240.207031 132.492188 240.660156 132.496094 240.660156 C 133.292969 240.660156 134.167969 240.300781 134.246094 239.285156 C 134.332031 238.140625 133.304688 237.640625 132.753906 237.53125 L 120.347656 236.632812 C 116.308594 235.941406 116.5625 232.246094 116.566406 232.210938 C 116.617188 231.8125 116.746094 231.433594 116.960938 231.078125 C 117.523438 230.136719 118.707031 229.464844 120.035156 229.328125 C 120.109375 229.359375 120.175781 229.371094 120.246094 229.378906 C 120.246094 229.378906 133.875 229.957031 133.878906 229.957031 C 134.8125 229.957031 135.710938 229.539062 135.792969 228.371094 C 135.867188 227.265625 135.007812 226.871094 134.542969 226.8125 L 123.589844 226.164062 C 123.3125 226.140625 123.027344 226.128906 122.742188 226.128906 C 122.613281 226.128906 122.484375 226.132812 122.351562 226.132812 C 121.902344 226.03125 121.429688 225.855469 121.046875 225.625 C 119.660156 224.773438 118.90625 223.28125 119.09375 221.71875 C 119.160156 221.148438 119.34375 220.617188 119.636719 220.136719 C 120.382812 218.917969 121.757812 218.15625 123.226562 218.15625 C 123.394531 218.15625 123.570312 218.167969 123.746094 218.1875 L 123.890625 218.199219 C 123.890625 218.199219 137.652344 218.382812 137.65625 218.382812 C 139.414062 218.382812 158.699219 217.9375 158.890625 217.929688 C 158.972656 217.925781 159.050781 217.898438 159.113281 217.847656 C 159.199219 217.777344 159.300781 217.707031 159.410156 217.636719 C 160.410156 216.984375 161.238281 216.097656 159.460938 213.152344 L 156.886719 207.875 C 157.34375 207.863281 157.773438 207.855469 158.195312 207.855469 C 162.726562 207.855469 165.070312 208.578125 165.371094 208.828125 C 171.328125 213.152344 175.351562 217.527344 178.585938 221.039062 C 181.199219 223.875 183.261719 226.113281 185.371094 227.269531 C 185.648438 227.421875 186.027344 227.566406 186.515625 227.714844 C 186.621094 227.761719 186.777344 227.800781 186.929688 227.835938 C 188.472656 228.238281 190.914062 228.589844 194.175781 228.878906 C 188.839844 236.289062 183.019531 244.34375 182.527344 244.992188 C 182.527344 244.992188 182.347656 245.210938 174.085938 255.753906 C 173.890625 255.957031 173.691406 256.199219 173.492188 256.476562 C 168.535156 257.332031 163.84375 258.253906 161.492188 258.828125 C 158.925781 259.460938 154.007812 260.132812 149.945312 260.132812 L 149.941406 260.132812 " fill-opacity="1" fill-rule="nonzero"/><g clip-path="url(#id3)"><path fill="#ffffff" d="M 204.667969 281.941406 C 204.523438 281.941406 204.378906 281.929688 204.238281 281.910156 C 203.71875 281.828125 203.269531 281.613281 202.917969 281.273438 C 202.679688 281.042969 202.5 280.773438 202.375 280.453125 C 202 279.53125 202.148438 277.980469 203.351562 276.746094 L 203.453125 276.628906 L 207.550781 271.414062 C 207.578125 271.378906 207.597656 271.339844 207.613281 271.296875 C 207.632812 271.246094 207.996094 270.003906 206.917969 269.175781 C 206.597656 268.929688 206.234375 268.804688 205.855469 268.804688 C 205.199219 268.804688 204.722656 269.164062 204.667969 269.207031 L 197.953125 277.234375 C 197.53125 277.632812 196.351562 278.769531 194.828125 278.769531 C 194.605469 278.769531 194.382812 278.746094 194.164062 278.699219 C 192.953125 278.4375 192.023438 277.613281 191.675781 276.5 C 191.207031 274.984375 191.835938 273.164062 193.394531 271.496094 L 199.382812 264.398438 C 199.753906 263.96875 200.226562 262.949219 199.347656 262.167969 C 199.054688 261.90625 198.71875 261.773438 198.34375 261.773438 C 197.640625 261.773438 197.078125 262.269531 197.046875 262.292969 L 188.816406 271.597656 C 187.878906 272.472656 186.835938 272.929688 185.738281 272.929688 C 184.351562 272.929688 183.269531 272.1875 183.003906 271.925781 C 182.710938 271.640625 182.492188 271.320312 182.34375 270.929688 C 181.929688 269.90625 182.109375 268.5625 182.804688 267.425781 C 182.878906 267.386719 182.929688 267.335938 182.980469 267.285156 L 191.695312 256.816406 C 191.703125 256.800781 192.234375 256.210938 192.191406 255.464844 C 192.167969 255.035156 191.964844 254.652344 191.59375 254.324219 C 191.296875 254.066406 190.96875 253.933594 190.628906 253.933594 C 190.039062 253.933594 189.640625 254.332031 189.59375 254.375 C 189.59375 254.375 182.429688 262.695312 182.429688 262.707031 C 182.167969 262.984375 181.921875 263.289062 181.671875 263.644531 C 181.308594 263.941406 180.890625 264.214844 180.480469 264.375 C 179.980469 264.566406 179.460938 264.664062 178.941406 264.664062 C 177.894531 264.664062 176.914062 264.269531 176.175781 263.558594 C 175.765625 263.160156 175.453125 262.691406 175.242188 262.167969 C 174.65625 260.664062 175.023438 258.917969 176.179688 257.726562 L 176.28125 257.613281 L 184.765625 246.800781 C 184.941406 246.613281 194.714844 233.054688 197.703125 228.902344 C 197.753906 228.835938 197.773438 228.757812 197.773438 228.679688 C 197.769531 228.566406 197.777344 228.445312 197.785156 228.316406 C 197.875 227.125 197.671875 225.929688 194.246094 225.554688 L 188.101562 225.078125 C 191.445312 220.445312 193.671875 219.046875 193.945312 218.980469 C 201.003906 216.871094 206.925781 216.320312 211.683594 215.878906 C 215.523438 215.519531 218.558594 215.242188 220.761719 214.269531 C 222.144531 213.652344 224.441406 211.53125 227.960938 207.597656 C 231.503906 215 238.738281 230.804688 240.40625 234.640625 C 238.429688 237.875 233.214844 248.246094 231.425781 252.363281 C 229.996094 255.660156 226.585938 261.304688 223.980469 264.121094 L 216.203125 271.933594 L 207.453125 280.671875 C 207.007812 281.128906 206.496094 281.480469 205.945312 281.6875 C 205.53125 281.851562 205.089844 281.941406 204.667969 281.941406 " fill-opacity="1" fill-rule="nonzero"/></g><g clip-path="url(#id4)"><path fill="#ffffff" d="M 248.40625 238.792969 C 248.234375 238.792969 248.070312 238.78125 247.910156 238.761719 C 246.308594 238.554688 244.953125 237.398438 244.457031 235.808594 L 244.402344 235.667969 L 238.96875 223.050781 C 238.894531 222.804688 231.8125 208.003906 229.644531 203.476562 C 229.609375 203.398438 229.550781 203.339844 229.484375 203.304688 L 229.300781 203.210938 C 228.984375 203.042969 228.582031 202.832031 228.074219 202.832031 C 227.09375 202.832031 226.085938 203.625 224.898438 205.324219 L 221.464844 209.464844 C 218.988281 204.316406 218.84375 201.929688 218.925781 201.664062 C 220.453125 194.46875 222.808594 189.011719 224.699219 184.632812 C 226.230469 181.09375 227.441406 178.300781 227.636719 175.910156 C 227.949219 172.125 221.773438 157.273438 220.589844 154.464844 C 222.96875 154.167969 234.1875 152.875 249.113281 152.863281 C 251.097656 158.113281 253.582031 164.742188 254.328125 167.082031 C 254.773438 168.484375 263.246094 180.992188 266.226562 184.820312 C 268.441406 187.660156 271.757812 193.351562 272.988281 196.980469 L 276.125 207.542969 L 279.609375 219.40625 C 279.804688 220.023438 279.859375 220.625 279.78125 221.210938 C 279.703125 221.820312 279.488281 222.371094 279.152344 222.8125 C 278.835938 223.226562 278.4375 223.515625 277.960938 223.664062 C 277.738281 223.734375 277.523438 223.769531 277.289062 223.769531 C 277.183594 223.769531 277.085938 223.761719 276.984375 223.75 C 275.988281 223.632812 274.699219 222.757812 274.195312 221.117188 L 274.136719 220.972656 L 271.519531 214.875 C 271.503906 214.835938 271.480469 214.800781 271.449219 214.765625 C 271.425781 214.742188 270.871094 214.1875 270.046875 214.1875 C 269.78125 214.1875 269.511719 214.246094 269.25 214.363281 C 268.234375 214.808594 268.117188 215.855469 268.195312 216.347656 L 272.03125 226.082031 C 272.214844 226.765625 272.738281 228.683594 271.503906 230.101562 C 270.839844 230.867188 269.949219 231.292969 269.003906 231.292969 C 267.195312 231.292969 265.625 229.808594 264.808594 227.320312 L 261.4375 218.675781 C 261.421875 218.628906 261.007812 217.539062 259.988281 217.539062 C 259.816406 217.539062 259.640625 217.574219 259.464844 217.636719 C 258.382812 218.019531 258.339844 219.164062 258.472656 219.707031 L 262.703125 231.386719 C 263.71875 235.351562 260.238281 236.628906 260.203125 236.640625 C 259.933594 236.722656 259.65625 236.765625 259.371094 236.765625 C 259.25 236.765625 259.125 236.757812 259.007812 236.742188 C 257.914062 236.613281 256.820312 235.808594 256.15625 234.652344 C 256.148438 234.566406 256.132812 234.503906 256.113281 234.4375 C 256.113281 234.429688 251.089844 221.777344 251.089844 221.777344 C 251.078125 221.746094 250.648438 220.550781 249.503906 220.550781 C 249.292969 220.550781 249.078125 220.59375 248.855469 220.671875 C 247.816406 221.054688 247.804688 222.003906 247.941406 222.449219 C 247.941406 222.449219 251.820312 232.714844 251.828125 232.722656 C 251.949219 233.097656 252.101562 233.464844 252.285156 233.839844 C 252.378906 234.296875 252.414062 234.792969 252.355469 235.238281 C 252.140625 236.851562 251.078125 238.148438 249.578125 238.613281 C 249.195312 238.730469 248.792969 238.792969 248.40625 238.792969 " fill-opacity="1" fill-rule="nonzero"/></g></svg>