<svg xmlns="http://www.w3.org/2000/svg" xmlns:xlink="http://www.w3.org/1999/xlink" width="500" zoomAndPan="magnify" viewBox="0 0 375 374.999991" height="500" preserveAspectRatio="xMidYMid meet" version="1.0"><path fill="#000000" d="M 187.5 375 C 84.113281 375 0 290.886719 0 187.5 C 0 84.113281 84.113281 0 187.5 0 C 201.96875 0 216.390625 1.660156 230.359375 4.933594 C 234.238281 5.839844 236.644531 9.71875 235.738281 13.597656 C 234.832031 17.476562 230.941406 19.878906 227.070312 18.972656 C 214.179688 15.953125 200.863281 14.421875 187.5 14.421875 C 92.066406 14.421875 14.421875 92.066406 14.421875 187.5 C 14.421875 282.933594 92.066406 360.578125 187.5 360.578125 C 282.933594 360.578125 360.578125 282.933594 360.578125 187.5 C 360.578125 171.605469 358.421875 155.859375 354.171875 140.695312 C 353.101562 136.859375 355.335938 132.878906 359.171875 131.804688 C 363 130.734375 366.988281 132.96875 368.0625 136.804688 C 372.664062 153.234375 375 170.289062 375 187.5 C 375 290.886719 290.886719 375 187.5 375 " fill-opacity="1" fill-rule="nonzero"/><path fill="#737373" d="M 187.5 315.503906 C 116.917969 315.503906 59.496094 258.082031 59.496094 187.5 C 59.496094 116.917969 116.917969 59.496094 187.5 59.496094 C 197.390625 59.496094 207.234375 60.632812 216.757812 62.878906 C 220.632812 63.792969 223.035156 67.675781 222.121094 71.554688 C 221.207031 75.429688 217.324219 77.828125 213.445312 76.917969 C 205.007812 74.925781 196.28125 73.917969 187.5 73.917969 C 124.871094 73.917969 73.917969 124.871094 73.917969 187.5 C 73.917969 250.128906 124.871094 301.082031 187.5 301.082031 C 250.128906 301.082031 301.082031 250.128906 301.082031 187.5 C 301.082031 177.085938 299.664062 166.757812 296.863281 156.800781 C 295.785156 152.96875 298.015625 148.984375 301.851562 147.90625 C 305.691406 146.828125 309.667969 149.0625 310.746094 152.898438 C 313.90625 164.125 315.503906 175.765625 315.503906 187.5 C 315.503906 258.082031 258.082031 315.503906 187.5 315.503906 " fill-opacity="1" fill-rule="nonzero"/><path fill="#000000" d="M 187.5 256.007812 C 149.722656 256.007812 118.992188 225.277344 118.992188 187.5 C 118.992188 149.722656 149.722656 118.992188 187.5 118.992188 C 192.808594 118.992188 198.082031 119.601562 203.167969 120.808594 C 207.046875 121.726562 209.445312 125.609375 208.523438 129.488281 C 207.605469 133.363281 203.722656 135.769531 199.84375 134.839844 C 195.84375 133.894531 191.691406 133.414062 187.5 133.414062 C 157.675781 133.414062 133.414062 157.675781 133.414062 187.5 C 133.414062 217.324219 157.675781 241.585938 187.5 241.585938 C 217.324219 241.585938 241.585938 217.324219 241.585938 187.5 C 241.585938 182.535156 240.914062 177.617188 239.582031 172.878906 C 238.507812 169.042969 240.742188 165.066406 244.578125 163.988281 C 248.410156 162.90625 252.394531 165.148438 253.472656 168.984375 C 255.15625 174.988281 256.007812 181.21875 256.007812 187.5 C 256.007812 225.277344 225.273438 256.007812 187.5 256.007812 " fill-opacity="1" fill-rule="nonzero"/><path fill="#ffffff" d="M 281.609375 137.703125 L 244.398438 130.601562 L 237.296875 93.390625 L 300.9375 29.75 L 311.46875 63.53125 L 345.25 74.0625 L 281.609375 137.703125 " fill-opacity="1" fill-rule="nonzero"/><path fill="#bc1823" d="M 250.5625 124.4375 L 245.09375 95.789062 L 297.601562 43.285156 L 305.707031 69.292969 L 331.714844 77.398438 L 279.210938 129.90625 Z M 358.78125 70.730469 L 317.226562 57.773438 L 304.269531 16.21875 L 229.496094 90.992188 L 236.601562 128.203125 L 182.402344 182.398438 C 179.585938 185.214844 179.585938 189.785156 182.402344 192.597656 C 183.808594 194.007812 185.65625 194.710938 187.5 194.710938 C 189.34375 194.710938 191.191406 194.007812 192.597656 192.597656 L 246.796875 138.398438 L 284.007812 145.503906 L 358.78125 70.730469 " fill-opacity="1" fill-rule="nonzero"/></svg>