<svg xmlns="http://www.w3.org/2000/svg" xmlns:xlink="http://www.w3.org/1999/xlink" width="500" zoomAndPan="magnify" viewBox="0 0 375 374.999991" height="500" preserveAspectRatio="xMidYMid meet" version="1.0"><defs><clipPath id="id1"><path d="M 88.925781 97 L 285 97 L 285 293.675781 L 88.925781 293.675781 Z M 88.925781 97 " clip-rule="nonzero"/></clipPath><clipPath id="id2"><path d="M 158 72.425781 L 310 72.425781 L 310 225 L 158 225 Z M 158 72.425781 " clip-rule="nonzero"/></clipPath></defs><path fill="#bc1823" d="M 375 187.5 C 375 190.570312 374.925781 193.636719 374.773438 196.699219 C 374.625 199.765625 374.398438 202.824219 374.097656 205.878906 C 373.796875 208.933594 373.421875 211.976562 372.96875 215.011719 C 372.519531 218.046875 371.996094 221.070312 371.398438 224.078125 C 370.796875 227.089844 370.125 230.082031 369.378906 233.058594 C 368.636719 236.035156 367.816406 238.992188 366.925781 241.929688 C 366.035156 244.863281 365.074219 247.777344 364.039062 250.667969 C 363.003906 253.554688 361.902344 256.417969 360.726562 259.253906 C 359.554688 262.089844 358.308594 264.890625 356.996094 267.667969 C 355.6875 270.441406 354.308594 273.179688 352.859375 275.886719 C 351.414062 278.59375 349.902344 281.261719 348.324219 283.894531 C 346.746094 286.527344 345.105469 289.117188 343.402344 291.667969 C 341.695312 294.222656 339.929688 296.730469 338.101562 299.195312 C 336.273438 301.660156 334.386719 304.078125 332.4375 306.449219 C 330.492188 308.820312 328.488281 311.144531 326.429688 313.417969 C 324.367188 315.691406 322.253906 317.914062 320.082031 320.082031 C 317.914062 322.253906 315.691406 324.367188 313.417969 326.429688 C 311.144531 328.488281 308.820312 330.492188 306.449219 332.4375 C 304.078125 334.386719 301.660156 336.273438 299.195312 338.101562 C 296.730469 339.929688 294.222656 341.695312 291.667969 343.402344 C 289.117188 345.105469 286.527344 346.746094 283.894531 348.324219 C 281.261719 349.902344 278.59375 351.414062 275.886719 352.859375 C 273.179688 354.308594 270.441406 355.6875 267.667969 356.996094 C 264.890625 358.308594 262.089844 359.554688 259.253906 360.726562 C 256.417969 361.902344 253.554688 363.003906 250.667969 364.039062 C 247.777344 365.074219 244.863281 366.035156 241.929688 366.925781 C 238.992188 367.816406 236.035156 368.636719 233.058594 369.378906 C 230.082031 370.125 227.089844 370.796875 224.078125 371.398438 C 221.070312 371.996094 218.046875 372.519531 215.011719 372.96875 C 211.976562 373.421875 208.933594 373.796875 205.878906 374.097656 C 202.824219 374.398438 199.765625 374.625 196.699219 374.773438 C 193.636719 374.925781 190.570312 375 187.5 375 C 184.429688 375 181.363281 374.925781 178.300781 374.773438 C 175.234375 374.625 172.175781 374.398438 169.121094 374.097656 C 166.066406 373.796875 163.023438 373.421875 159.988281 372.96875 C 156.953125 372.519531 153.929688 371.996094 150.921875 371.398438 C 147.910156 370.796875 144.917969 370.125 141.941406 369.378906 C 138.964844 368.636719 136.007812 367.816406 133.070312 366.925781 C 130.136719 366.035156 127.222656 365.074219 124.332031 364.039062 C 121.445312 363.003906 118.582031 361.902344 115.746094 360.726562 C 112.910156 359.554688 110.105469 358.308594 107.332031 356.996094 C 104.558594 355.6875 101.820312 354.308594 99.113281 352.859375 C 96.40625 351.414062 93.738281 349.902344 91.105469 348.324219 C 88.472656 346.746094 85.882812 345.105469 83.332031 343.402344 C 80.777344 341.695312 78.269531 339.929688 75.804688 338.101562 C 73.339844 336.273438 70.921875 334.386719 68.550781 332.4375 C 66.179688 330.492188 63.855469 328.488281 61.582031 326.429688 C 59.308594 324.367188 57.085938 322.253906 54.917969 320.082031 C 52.746094 317.914062 50.632812 315.691406 48.570312 313.417969 C 46.511719 311.144531 44.507812 308.820312 42.558594 306.449219 C 40.613281 304.078125 38.726562 301.660156 36.898438 299.195312 C 35.070312 296.730469 33.304688 294.222656 31.597656 291.667969 C 29.894531 289.117188 28.253906 286.527344 26.675781 283.894531 C 25.097656 281.261719 23.585938 278.59375 22.140625 275.886719 C 20.691406 273.179688 19.3125 270.441406 18.003906 267.667969 C 16.691406 264.890625 15.445312 262.089844 14.273438 259.253906 C 13.097656 256.417969 11.996094 253.554688 10.960938 250.667969 C 9.925781 247.777344 8.964844 244.863281 8.074219 241.929688 C 7.183594 238.992188 6.363281 236.035156 5.621094 233.058594 C 4.875 230.082031 4.203125 227.089844 3.601562 224.078125 C 3.003906 221.070312 2.480469 218.046875 2.03125 215.011719 C 1.578125 211.976562 1.203125 208.933594 0.902344 205.878906 C 0.601562 202.824219 0.375 199.765625 0.226562 196.699219 C 0.0742188 193.636719 0 190.570312 0 187.5 C 0 184.429688 0.0742188 181.363281 0.226562 178.300781 C 0.375 175.234375 0.601562 172.175781 0.902344 169.121094 C 1.203125 166.066406 1.578125 163.023438 2.03125 159.988281 C 2.480469 156.953125 3.003906 153.929688 3.601562 150.921875 C 4.203125 147.910156 4.875 144.917969 5.621094 141.941406 C 6.363281 138.964844 7.183594 136.007812 8.074219 133.070312 C 8.964844 130.136719 9.925781 127.222656 10.960938 124.332031 C 11.996094 121.445312 13.097656 118.582031 14.273438 115.746094 C 15.445312 112.910156 16.691406 110.105469 18.003906 107.332031 C 19.3125 104.558594 20.691406 101.820312 22.140625 99.113281 C 23.585938 96.40625 25.097656 93.738281 26.675781 91.105469 C 28.253906 88.472656 29.894531 85.882812 31.597656 83.332031 C 33.304688 80.777344 35.070312 78.269531 36.898438 75.804688 C 38.726562 73.339844 40.613281 70.921875 42.558594 68.550781 C 44.507812 66.179688 46.511719 63.855469 48.570312 61.582031 C 50.632812 59.308594 52.746094 57.085938 54.917969 54.917969 C 57.085938 52.746094 59.308594 50.632812 61.582031 48.570312 C 63.855469 46.511719 66.179688 44.507812 68.550781 42.558594 C 70.921875 40.613281 73.339844 38.726562 75.804688 36.898438 C 78.269531 35.070312 80.777344 33.304688 83.332031 31.597656 C 85.882812 29.894531 88.472656 28.253906 91.105469 26.675781 C 93.738281 25.097656 96.40625 23.585938 99.113281 22.140625 C 101.820312 20.691406 104.558594 19.3125 107.332031 18.003906 C 110.105469 16.691406 112.910156 15.445312 115.746094 14.273438 C 118.582031 13.097656 121.445312 11.996094 124.332031 10.960938 C 127.222656 9.925781 130.136719 8.964844 133.070312 8.074219 C 136.007812 7.183594 138.964844 6.363281 141.941406 5.617188 C 144.917969 4.875 147.910156 4.203125 150.921875 3.601562 C 153.929688 3.003906 156.953125 2.480469 159.988281 2.03125 C 163.023438 1.578125 166.066406 1.203125 169.121094 0.902344 C 172.175781 0.601562 175.234375 0.375 178.300781 0.226562 C 181.363281 0.0742188 184.429688 0 187.5 0 C 190.570312 0 193.636719 0.0742188 196.699219 0.226562 C 199.765625 0.375 202.824219 0.601562 205.878906 0.902344 C 208.933594 1.203125 211.976562 1.578125 215.011719 2.03125 C 218.046875 2.480469 221.070312 3.003906 224.078125 3.601562 C 227.089844 4.203125 230.082031 4.875 233.058594 5.617188 C 236.035156 6.363281 238.992188 7.183594 241.929688 8.074219 C 244.863281 8.964844 247.777344 9.925781 250.667969 10.960938 C 253.554688 11.996094 256.417969 13.097656 259.253906 14.273438 C 262.089844 15.445312 264.890625 16.691406 267.667969 18.003906 C 270.441406 19.3125 273.179688 20.691406 275.886719 22.140625 C 278.59375 23.585938 281.261719 25.097656 283.894531 26.675781 C 286.527344 28.253906 289.117188 29.894531 291.667969 31.597656 C 294.222656 33.304688 296.730469 35.070312 299.195312 36.898438 C 301.660156 38.726562 304.078125 40.613281 306.449219 42.558594 C 308.820312 44.507812 311.144531 46.511719 313.417969 48.570312 C 315.691406 50.632812 317.914062 52.746094 320.082031 54.917969 C 322.253906 57.085938 324.367188 59.308594 326.429688 61.582031 C 328.488281 63.855469 330.492188 66.179688 332.4375 68.550781 C 334.386719 70.921875 336.273438 73.339844 338.101562 75.804688 C 339.929688 78.269531 341.695312 80.777344 343.402344 83.332031 C 345.105469 85.882812 346.746094 88.472656 348.324219 91.105469 C 349.902344 93.738281 351.414062 96.40625 352.859375 99.113281 C 354.308594 101.820312 355.6875 104.558594 356.996094 107.332031 C 358.308594 110.105469 359.554688 112.910156 360.726562 115.746094 C 361.902344 118.582031 363.003906 121.445312 364.039062 124.332031 C 365.074219 127.222656 366.035156 130.136719 366.925781 133.070312 C 367.816406 136.007812 368.636719 138.964844 369.378906 141.941406 C 370.125 144.917969 370.796875 147.910156 371.398438 150.921875 C 371.996094 153.929688 372.519531 156.953125 372.96875 159.988281 C 373.421875 163.023438 373.796875 166.066406 374.097656 169.121094 C 374.398438 172.175781 374.625 175.234375 374.773438 178.300781 C 374.925781 181.363281 375 184.429688 375 187.5 Z M 375 187.5 " fill-opacity="1" fill-rule="nonzero"/><path fill="#ffffff" d="M 187.5 357.117188 C 93.890625 357.117188 17.882812 281.109375 17.882812 187.5 C 17.882812 93.890625 93.890625 17.882812 187.5 17.882812 C 281.109375 17.882812 357.117188 93.890625 357.117188 187.5 C 357.117188 281.109375 281.109375 357.117188 187.5 357.117188 Z M 187.5 22.074219 C 96.125 22.074219 22.074219 96.125 22.074219 187.5 C 22.074219 278.875 96.40625 352.925781 187.5 352.925781 C 278.875 352.925781 352.925781 278.59375 352.925781 187.5 C 352.925781 96.125 278.875 22.074219 187.5 22.074219 Z M 187.5 22.074219 " fill-opacity="1" fill-rule="nonzero"/><path fill="#ffffff" d="M 186.835938 138.902344 C 188.421875 138.902344 189.710938 137.617188 189.710938 136.027344 C 189.710938 134.441406 188.421875 133.15625 186.835938 133.15625 C 152.320312 133.15625 124.234375 161.242188 124.234375 195.765625 C 124.234375 230.285156 152.320312 258.367188 186.835938 258.367188 C 221.355469 258.367188 249.441406 230.285156 249.441406 195.765625 C 249.441406 194.179688 248.15625 192.890625 246.570312 192.890625 C 244.980469 192.890625 243.695312 194.179688 243.695312 195.765625 C 243.695312 227.117188 218.191406 252.625 186.835938 252.625 C 155.484375 252.625 129.976562 227.117188 129.976562 195.765625 C 129.976562 164.410156 155.484375 138.902344 186.835938 138.902344 " fill-opacity="1" fill-rule="nonzero"/><g clip-path="url(#id1)"><path fill="#ffffff" d="M 281.855469 192.890625 C 280.269531 192.890625 278.984375 194.179688 278.984375 195.765625 C 278.984375 246.574219 237.644531 287.910156 186.835938 287.910156 C 136.027344 287.910156 94.6875 246.574219 94.6875 195.765625 C 94.6875 144.953125 136.027344 103.617188 186.835938 103.617188 C 188.421875 103.617188 189.710938 102.332031 189.710938 100.746094 C 189.710938 99.160156 188.421875 97.871094 186.835938 97.871094 C 132.855469 97.871094 88.945312 141.785156 88.945312 195.765625 C 88.945312 249.742188 132.855469 293.652344 186.835938 293.652344 C 240.816406 293.652344 284.730469 249.742188 284.730469 195.765625 C 284.730469 194.179688 283.441406 192.890625 281.855469 192.890625 " fill-opacity="1" fill-rule="nonzero"/></g><g clip-path="url(#id2)"><path fill="#ffffff" d="M 266.433594 143.300781 L 246.421875 140.246094 L 254.054688 132.613281 L 267.789062 132.519531 C 269.371094 132.511719 270.644531 131.214844 270.636719 129.628906 C 270.628906 128.050781 269.34375 126.777344 267.765625 126.777344 C 267.757812 126.777344 267.75 126.777344 267.742188 126.777344 L 259.835938 126.828125 L 266.515625 120.152344 L 280.234375 120.066406 C 281.820312 120.050781 283.097656 118.761719 283.089844 117.171875 C 283.082031 115.59375 281.796875 114.320312 280.21875 114.320312 C 280.210938 114.320312 280.203125 114.320312 280.203125 114.320312 L 272.296875 114.371094 L 281.074219 105.59375 L 301.085938 108.648438 Z M 209.335938 195.765625 C 209.335938 208.167969 199.246094 218.261719 186.835938 218.261719 C 174.429688 218.261719 164.339844 208.167969 164.339844 195.765625 C 164.339844 183.359375 174.429688 173.265625 186.835938 173.265625 C 192.003906 173.265625 196.710938 175.085938 200.511719 178.023438 L 184.800781 193.734375 C 183.6875 194.855469 183.6875 196.675781 184.800781 197.796875 C 185.363281 198.355469 186.101562 198.636719 186.835938 198.636719 C 187.570312 198.636719 188.308594 198.355469 188.871094 197.796875 L 204.574219 182.089844 C 207.515625 185.890625 209.335938 190.597656 209.335938 195.765625 Z M 239.300781 116.167969 L 273.953125 81.515625 L 277.007812 101.527344 L 269.679688 108.855469 C 269.679688 108.859375 269.671875 108.859375 269.671875 108.859375 L 268.230469 110.300781 L 268.28125 102.398438 C 268.289062 100.8125 267.019531 99.515625 265.433594 99.507812 C 265.421875 99.507812 265.417969 99.507812 265.410156 99.507812 C 263.832031 99.507812 262.546875 100.78125 262.535156 102.359375 L 262.445312 116.085938 L 255.769531 122.765625 L 255.820312 114.855469 C 255.828125 113.269531 254.554688 111.976562 252.96875 111.964844 C 252.964844 111.964844 252.957031 111.964844 252.949219 111.964844 C 251.371094 111.964844 250.085938 113.238281 250.078125 114.816406 L 249.984375 128.546875 L 242.355469 136.179688 Z M 309.859375 105.773438 C 309.523438 104.746094 308.632812 103.992188 307.5625 103.832031 L 282.59375 100.011719 L 278.773438 75.039062 C 278.613281 73.96875 277.855469 73.078125 276.832031 72.742188 C 275.777344 72.410156 274.667969 72.679688 273.898438 73.441406 L 234.203125 113.136719 C 233.5625 113.78125 233.261719 114.691406 233.398438 115.601562 L 237.3125 141.222656 L 204.570312 173.964844 C 199.707031 170 193.585938 167.523438 186.835938 167.523438 C 171.265625 167.523438 158.59375 180.191406 158.59375 195.765625 C 158.59375 211.335938 171.265625 224.007812 186.835938 224.007812 C 202.410156 224.007812 215.082031 211.335938 215.082031 195.765625 C 215.082031 189.015625 212.601562 182.894531 208.636719 178.03125 L 241.378906 145.285156 L 267 149.199219 C 267.144531 149.222656 267.292969 149.234375 267.4375 149.234375 C 268.191406 149.234375 268.925781 148.9375 269.46875 148.394531 L 309.164062 108.699219 C 309.925781 107.933594 310.195312 106.800781 309.859375 105.773438 " fill-opacity="1" fill-rule="nonzero"/></g></svg>