<?xml version="1.0" encoding="utf-8"?>
<svg viewBox="0 0 138.301 55.682" xmlns="http://www.w3.org/2000/svg">
  <defs>
    <clipPath id="id5">
      <path d="M 116.894531 139.972656 L 253.964844 139.972656 L 253.964844 194.921875 L 116.894531 194.921875 Z M 116.894531 139.972656 " clip-rule="nonzero"/>
    </clipPath>
  </defs>
  <g clip-path="url(#id5)" transform="matrix(1, 0, 0, 1, -116.381935, -139.573578)">
    <path fill="#bc1823" d="M 116.894531 139.972656 L 253.964844 139.972656 L 253.964844 194.921875 L 116.894531 194.921875 L 116.894531 139.972656 " fill-opacity="1" fill-rule="nonzero"/>
  </g>
  <g fill="#ffffff" fill-opacity="1" transform="matrix(1, 0, 0, 1, -116.381935, -139.573578)">
    <g transform="translate(128.0361, 176.93202)">
      <g>
        <path d="M 10.34375 -18.28125 C 12.238281 -18.28125 13.734375 -17.875 14.828125 -17.0625 C 15.929688 -16.257812 16.484375 -15.144531 16.484375 -13.71875 C 16.484375 -12.707031 16.195312 -11.832031 15.625 -11.09375 C 15.050781 -10.363281 14.265625 -9.878906 13.265625 -9.640625 C 14.484375 -9.429688 15.441406 -8.914062 16.140625 -8.09375 C 16.835938 -7.28125 17.1875 -6.253906 17.1875 -5.015625 C 17.1875 -3.453125 16.59375 -2.222656 15.40625 -1.328125 C 14.226562 -0.441406 12.601562 0 10.53125 0 L 2.40625 0 L 2.40625 -18.28125 Z M 10.1875 -10.71875 C 11.175781 -10.71875 11.945312 -10.925781 12.5 -11.34375 C 13.050781 -11.769531 13.328125 -12.378906 13.328125 -13.171875 C 13.328125 -13.921875 13.046875 -14.503906 12.484375 -14.921875 C 11.929688 -15.335938 11.164062 -15.535156 10.1875 -15.515625 L 5.484375 -15.515625 L 5.484375 -10.71875 Z M 10.1875 -2.765625 C 11.382812 -2.753906 12.320312 -2.976562 13 -3.4375 C 13.6875 -3.894531 14.03125 -4.550781 14.03125 -5.40625 C 14.03125 -6.226562 13.6875 -6.867188 13 -7.328125 C 12.320312 -7.785156 11.382812 -8.007812 10.1875 -8 L 5.484375 -8 L 5.484375 -2.765625 Z M 10.1875 -2.765625 "/>
      </g>
    </g>
  </g>
  <g fill="#ffffff" fill-opacity="1" transform="matrix(1, 0, 0, 1, -116.381935, -139.573578)">
    <g transform="translate(164.329066, 176.93202)">
      <g>
        <path d="M 10.765625 -10.5 L 18.3125 0 L 14.609375 0 L 8.5625 -8.09375 L 5.484375 -4.703125 L 5.484375 0 L 2.40625 0 L 2.40625 -18.28125 L 5.484375 -18.28125 L 5.484375 -8.671875 L 14.21875 -18.28125 L 17.84375 -18.28125 Z M 10.765625 -10.5 "/>
      </g>
    </g>
  </g>
  <g fill="#ffffff" fill-opacity="1" transform="matrix(1, 0, 0, 1, -116.381935, -139.573578)">
    <g transform="translate(184.338394, 176.93202)">
      <g>
        <path d="M 10.765625 -10.5 L 18.3125 0 L 14.609375 0 L 8.5625 -8.09375 L 5.484375 -4.703125 L 5.484375 0 L 2.40625 0 L 2.40625 -18.28125 L 5.484375 -18.28125 L 5.484375 -8.671875 L 14.21875 -18.28125 L 17.84375 -18.28125 Z M 10.765625 -10.5 "/>
      </g>
    </g>
  </g>
  <g fill="#ffffff" fill-opacity="1" transform="matrix(1, 0, 0, 1, -116.381935, -139.573578)">
    <g transform="translate(204.347722, 176.93202)">
      <g>
        <path d="M 5.125 -7.5 C 5.125 -5.96875 5.554688 -4.757812 6.421875 -3.875 C 7.296875 -3 8.472656 -2.5625 9.953125 -2.5625 C 11.410156 -2.5625 12.566406 -2.992188 13.421875 -3.859375 C 14.273438 -4.734375 14.703125 -5.945312 14.703125 -7.5 L 14.703125 -18.28125 L 17.796875 -18.28125 L 17.796875 -7.5 C 17.796875 -5.914062 17.476562 -4.539062 16.84375 -3.375 C 16.21875 -2.21875 15.3125 -1.328125 14.125 -0.703125 C 12.945312 -0.078125 11.554688 0.234375 9.953125 0.234375 C 8.335938 0.234375 6.929688 -0.078125 5.734375 -0.703125 C 4.535156 -1.328125 3.617188 -2.21875 2.984375 -3.375 C 2.347656 -4.539062 2.03125 -5.914062 2.03125 -7.5 L 2.03125 -18.28125 L 5.125 -18.28125 Z M 5.125 -7.5 "/>
      </g>
    </g>
  </g>
  <g fill="#ffffff" fill-opacity="1" transform="matrix(1, 0, 0, 1, -116.381935, -139.573578)">
    <g transform="translate(225.428021, 176.93202)">
      <g>
        <path d="M 9.6875 -18.28125 C 11.988281 -18.28125 13.769531 -17.734375 15.03125 -16.640625 C 16.289062 -15.554688 16.921875 -14.023438 16.921875 -12.046875 C 16.921875 -9.972656 16.289062 -8.363281 15.03125 -7.21875 C 13.769531 -6.082031 11.988281 -5.515625 9.6875 -5.515625 L 5.484375 -5.515625 L 5.484375 0 L 2.40625 0 L 2.40625 -18.28125 Z M 9.5625 -8.28125 C 10.988281 -8.28125 12.082031 -8.585938 12.84375 -9.203125 C 13.601562 -9.828125 13.984375 -10.75 13.984375 -11.96875 C 13.984375 -13.144531 13.601562 -14.03125 12.84375 -14.625 C 12.082031 -15.21875 10.988281 -15.515625 9.5625 -15.515625 L 5.484375 -15.515625 L 5.484375 -8.28125 Z M 9.5625 -8.28125 "/>
      </g>
    </g>
  </g>
  <g fill="#ffffff" fill-opacity="1" transform="matrix(1, 0, 0, 1, -116.381935, -139.573578)">
    <g transform="translate(164.368148, 158.186898)">
      <g>
        <path d="M -7.359375 0 L -0.078125 18.265625 L -3.390625 18.265625 L -9.03125 3.421875 L -14.71875 18.265625 L -17.921875 18.265625 L -10.546875 0 Z M -7.359375 0 "/>
      </g>
    </g>
  </g>
</svg>